<?xml version="1.0" encoding="UTF-8" standalone="no"?>
<!-- Created with Inkscape (http://www.inkscape.org/) -->

<svg
   width="450mm"
   height="200mm"
   viewBox="0 0 450 200"
   version="1.1"
   id="svg5"
   xml:space="preserve"
   inkscape:version="1.2 (dc2aedaf03, 2022-05-15)"
   sodipodi:docname="distree.svg"
   xmlns:inkscape="http://www.inkscape.org/namespaces/inkscape"
   xmlns:sodipodi="http://sodipodi.sourceforge.net/DTD/sodipodi-0.dtd"
   xmlns="http://www.w3.org/2000/svg"
   xmlns:svg="http://www.w3.org/2000/svg"><sodipodi:namedview
     id="namedview7"
     pagecolor="#ffffff"
     bordercolor="#000000"
     borderopacity="0.25"
     inkscape:showpageshadow="2"
     inkscape:pageopacity="0.0"
     inkscape:pagecheckerboard="0"
     inkscape:deskcolor="#d1d1d1"
     inkscape:document-units="mm"
     showgrid="false"
     inkscape:zoom="0.36925856"
     inkscape:cx="861.18519"
     inkscape:cy="324.97554"
     inkscape:window-width="1920"
     inkscape:window-height="1009"
     inkscape:window-x="-8"
     inkscape:window-y="-8"
     inkscape:window-maximized="1"
     inkscape:current-layer="layer1" /><defs
     id="defs2"><pattern
       id="EMFhbasepattern"
       patternUnits="userSpaceOnUse"
       width="6"
       height="6"
       x="0"
       y="0" /><pattern
       id="EMFhbasepattern-5"
       patternUnits="userSpaceOnUse"
       width="6"
       height="6"
       x="0"
       y="0" /><pattern
       id="EMFhbasepattern-3"
       patternUnits="userSpaceOnUse"
       width="6"
       height="6"
       x="0"
       y="0" /><pattern
       id="EMFhbasepattern-6"
       patternUnits="userSpaceOnUse"
       width="6"
       height="6"
       x="0"
       y="0" /></defs><g
     inkscape:label="Capa 1"
     inkscape:groupmode="layer"
     id="layer1"><path
       id="path362"
       style="fill:#568b7d;fill-opacity:1;fill-rule:evenodd;stroke:none;stroke-width:0.303777"
       d="m 151.95512,17.179354 c -7.08815,0 -7.99909,0.100859 -8.91043,0.708421 -2.43022,1.620146 -2.2281,-1.619908 -2.32936,41.415268 0,26.327402 -0.20213,39.0859 -0.40464,39.0859 -0.20252,0 -1.01259,-0.404834 -1.82267,-0.809883 -1.62016,-0.810073 -6.17702,-2.227891 -10.42991,-3.13923 -2.43022,-0.506289 -4.75939,-0.607555 -10.42991,-0.607555 -6.6831,0 -7.59445,0.101253 -10.936,0.911339 -12.556146,3.240292 -21.770768,9.923416 -28.555135,20.656896 -4.961702,7.99948 -7.087759,16.30296 -6.783982,27.44147 0.101253,6.48059 0.303381,6.27789 -2.936916,2.93634 -1.923923,-2.02519 -1.923927,-2.0252 -2.126445,-15.49268 -0.20252,-16.60653 -0.101253,-18.53028 1.518889,-21.77057 1.41763,-2.73399 5.670922,-7.4934 9.012477,-10.126127 2.835258,-2.126448 8.606656,-5.670131 15.289765,-9.517977 2.53148,-1.417628 5.569265,-3.443014 6.683117,-4.354353 2.63274,-2.126448 5.06317,-5.873233 6.17702,-9.214793 0.81007,-2.632733 0.80987,-2.734019 0.80987,-19.138015 0,-15.695184 4e-4,-16.606539 -0.70842,-17.619125 -1.7214,-2.632745 -5.974298,-2.733598 -7.594446,-0.100859 -0.405039,0.60756 -0.607752,3.948726 -0.709013,17.719989 -0.202518,16.91029 -0.202322,16.910515 -1.113656,18.631917 -1.113851,1.822665 -3.544078,4.151438 -4.860448,4.455212 -0.708816,0.202509 -1.62055,-0.506106 -6.278474,-5.366547 -7.695701,-7.999478 -7.189216,-6.986909 -7.189216,-14.885123 0,-7.088145 -0.303583,-8.30327 -2.024989,-9.720897 -1.113853,-0.911332 -3.645732,-1.012388 -5.063363,-0.202321 -2.025185,1.215107 -2.126445,1.923545 -2.126445,10.429317 0,7.695705 1.99e-4,7.695918 1.012791,10.126132 0.911333,1.923932 2.025192,3.341757 6.986895,8.303464 3.139037,3.240292 5.771782,6.075157 5.771782,6.176422 0,0.101253 -1.721409,1.215313 -3.645337,2.531675 -6.986887,4.354149 -13.264778,10.024483 -16.606333,15.087439 -1.215111,1.92393 -2.936524,5.36676 -3.645336,7.29067 -0.101266,0.60755 -0.304174,0.50669 -1.418027,-0.70842 -0.708813,-0.81006 -1.822275,-2.63313 -2.531088,-4.15202 -1.316372,-2.734 -1.316373,-2.73382 -1.51889,-14.176111 C 52.316328,79.858697 52.214673,78.441062 51.708378,77.529728 50.898301,76.31462 49.683384,75.808517 47.86072,75.808517 c -1.215112,0 -1.721608,0.202313 -2.83546,1.417433 -1.417628,1.417627 -1.417235,1.417847 -1.315976,14.075235 0.101252,12.049855 0.202519,12.758675 0.911334,14.885125 1.31637,3.64533 2.936328,5.87266 7.796772,11.03687 4.657926,4.9617 4.658128,4.96212 4.658128,11.4427 0,6.37934 -9e-6,6.37934 -8.202007,6.37934 -7.898221,0 -8.303465,-4e-4 -9.518576,-0.81047 -2.025184,-1.31638 -9.315663,-8.50539 -10.834551,-10.7331 -1.31637,-1.92392 -1.316372,-1.92393 -1.51889,-13.97379 -0.202519,-11.948584 -0.202519,-11.94899 -1.518891,-13.265365 -1.113851,-1.012579 -1.51889,-1.21511 -3.03778,-1.21511 -1.923925,0 -3.240694,0.810276 -3.84825,2.531675 -0.303777,0.70882 -0.405038,4.45543 -0.303778,13.36624 0.101254,15.79644 -0.404831,14.58135 8.911019,23.99846 3.847851,3.84786 7.189415,6.88544 8.202006,7.493 2.734001,1.51889 5.164039,1.82306 13.872332,1.7218 7.796962,-0.20252 7.79717,-0.20252 7.999686,0.91133 0.708817,3.03779 1.721419,4.35378 10.024674,12.85955 6.784372,6.88562 8.607049,9.11333 10.632232,12.1511 3.442815,5.36674 6.277884,8.60746 10.226995,11.7465 5.467999,4.35414 10.93641,6.88543 17.822041,8.40432 2.32896,0.5063 4.45502,0.70901 9.51798,0.70901 6.07556,0 6.88563,-0.10151 10.02467,-1.01278 4.35415,-1.21512 9.11335,-3.64514 12.75868,-6.27789 1.51888,-1.11386 2.83565,-2.02558 2.93692,-2.02558 0.10125,0 0.10087,0.81008 0.10087,1.82267 0,2.22771 0.70882,3.64572 2.12644,4.75958 1.01261,0.70882 1.5189,0.70842 8.80957,0.70842 7.49319,0 7.79717,1.9e-4 8.91102,-0.80987 0.70882,-0.50631 1.41742,-1.41764 1.72121,-2.12646 0.30378,-0.91134 0.40524,-20.65715 0.40524,-83.03284 0,-75.640648 -2e-5,-81.918408 -0.60756,-83.032258 -1.11384,-2.531482 -1.72163,-2.734003 -10.73368,-2.734003 z m -33.94126,93.340536 c 2.8004,0.009 6.13312,0.37458 8.22159,0.93151 4.35414,1.11386 9.31586,3.94951 12.75867,7.18981 1.62015,1.62016 1.62035,1.62017 1.62035,22.78335 0,21.26443 -3.9e-4,21.26446 -2.63314,23.69469 -3.84785,3.74658 -8.70812,6.4802 -12.961,7.39153 -7.08814,1.62014 -14.37902,0.40524 -20.45458,-3.24011 -3.44281,-2.02518 -7.897835,-6.58165 -9.821758,-10.227 -6.075554,-11.03725 -5.56926,-25.82112 1.215111,-36.14956 4.050367,-6.17683 11.543377,-11.03728 18.732777,-12.15114 0.88602,-0.15821 2.04907,-0.22741 3.32198,-0.22308 z" /><path
       id="path2416"
       style="fill:#3a4647;fill-opacity:1;fill-rule:evenodd;stroke:none;stroke-width:0.336133"
       d="m 261.04475,119.3388 c -1.7927,0 -4.2577,0.33657 -5.37812,0.56066 -1.23249,0.33615 -2.35272,0.67205 -2.5768,0.89614 -0.33614,0.22409 -0.56066,2.24088 -0.56066,7.05879 v 6.83492 l -3.69747,0.11167 c -2.68907,0.22409 -3.80906,0.44862 -4.1452,0.89679 -0.44817,0.89636 -0.44862,7.28288 0.11167,8.40333 0.33614,0.67226 0.89636,0.78387 4.03359,0.78387 h 3.69747 v 16.58277 c 0,15.23801 0.1123,16.69483 0.78452,19.27185 1.12045,3.69747 3.13747,6.16243 6.16266,7.73106 1.90475,1.0084 3.02521,1.23206 6.72267,1.45614 3.69745,0.11205 4.81789,4.3e-4 7.39492,-0.78388 1.56862,-0.56022 3.24885,-1.23272 3.47293,-1.45679 0.67227,-0.56024 0.78454,-8.96354 0.11231,-9.41172 -0.22409,-0.11205 -1.45659,0.1123 -2.68907,0.44839 -4.48176,1.23249 -7.95515,0.67227 -9.07559,-1.68067 -0.67227,-1.23248 -0.78453,-3.02542 -0.78453,-16.9189 V 144.6611 l 6.61106,-0.22387 6.49813,-0.22452 0.22452,-4.0336 c 0,-2.68907 -0.1123,-4.36929 -0.44839,-4.81747 -0.33615,-0.44818 -1.79272,-0.56066 -6.72265,-0.56066 h -6.38654 v -7.73105 -7.73107 z m -42.52082,13.73418 c -1.66665,0.0193 -3.24951,0.21577 -4.65005,0.60793 -5.93834,1.56862 -10.42013,5.26609 -12.43693,10.08399 -0.89636,2.12883 -1.12001,3.36133 -1.12001,6.05039 0,8.17923 4.48136,12.54898 16.91826,16.13438 7.50696,2.12884 9.63603,3.13724 10.86852,4.70587 2.0168,2.46496 1.0084,6.49856 -2.0168,8.06719 -5.49016,2.80111 -12.54918,1.12022 -18.26343,-4.48199 -1.34453,-1.23249 -1.79228,-1.5684 -2.46455,-1.23228 -1.45657,0.78431 -6.16265,5.48996 -6.16265,6.27427 0,1.0084 4.14585,5.37791 6.49879,6.94653 3.36131,2.24089 7.6188,3.47337 12.99692,3.69746 5.93834,0.22409 9.18764,-0.44797 13.44531,-2.91293 6.16244,-3.47337 9.41172,-10.08421 8.40334,-17.25504 -0.44818,-3.13724 -1.45658,-5.15405 -3.69747,-7.39492 -2.80111,-2.91316 -6.61063,-4.70544 -16.47051,-7.50655 -6.61061,-1.90475 -8.6272,-3.36132 -8.6272,-6.38652 0,-3.36134 2.68884,-5.04199 7.95493,-5.04199 3.92156,0.11205 7.05879,1.34432 10.08399,3.92133 1.23249,1.12045 2.57701,2.01679 3.02519,2.01679 0.78431,0 6.16266,-5.71448 6.16266,-6.49879 0,-0.67225 -3.24951,-3.92155 -5.82653,-5.71425 -3.86553,-2.60503 -9.62181,-4.13864 -14.62178,-4.08087 z m 125.86407,0.0473 c -0.7808,-0.008 -1.41106,0.0282 -1.7752,0.11231 -0.44818,0.11205 -1.79271,0.44818 -3.0252,0.67227 -3.92156,0.89635 -7.95492,3.2495 -10.98012,6.49879 -4.8179,5.15403 -7.05881,10.97992 -7.39492,19.60731 -0.56022,11.54056 3.24929,20.61659 10.75625,25.77064 10.86828,7.50695 27.0029,4.81746 34.0617,-5.60266 0.78429,-1.12044 1.3443,-2.24044 1.23226,-2.46453 -0.33614,-0.56023 -7.17085,-4.48199 -7.73105,-4.48199 -0.22409,0 -1.34454,0.89634 -2.35294,2.01679 -2.35294,2.35293 -5.49016,3.92155 -8.40332,4.36973 -2.35293,0.33614 -6.72287,-0.44818 -8.51559,-1.34453 -2.0168,-1.12045 -4.36974,-3.80929 -5.37812,-5.93812 -0.89635,-1.79271 -2.12841,-6.61106 -1.79228,-6.94719 0.11205,0 7.95517,-0.22409 17.47891,-0.33614 19.94388,-0.11205 18.48732,0.11243 18.48732,-4.1452 0,-13.6694 -6.38698,-23.97793 -16.69504,-26.77903 -1.93276,-0.58823 -5.63024,-0.98739 -7.97266,-1.00839 z m 55.57945,0.0636 c -1.23942,0.0102 -2.40347,0.0974 -3.34885,0.27246 -10.19601,1.68067 -17.47935,9.63582 -19.72024,21.17637 -1.79271,9.29967 -0.33591,17.81528 4.14586,24.64997 4.48177,7.05878 11.65261,10.75605 20.50411,10.644 6.61061,0 12.10058,-1.90455 16.35826,-5.93813 1.90476,-1.90476 4.59404,-5.37792 4.48199,-6.27427 0,-0.11205 -1.68089,-1.2327 -3.80972,-2.46519 l -3.80908,-2.12907 -1.90519,2.0168 c -1.12044,1.12045 -3.02499,2.57748 -4.25747,3.24973 -2.12885,1.0084 -2.91294,1.23226 -6.27425,1.23226 -3.36134,0 -4.2579,-0.2243 -6.16266,-1.12065 -1.23249,-0.67227 -2.80089,-1.68067 -3.5852,-2.35294 -1.56862,-1.56862 -3.69747,-6.05041 -4.0336,-8.73945 l -0.22452,-2.1284 17.59118,-0.11231 17.59117,-0.1123 0.11167,-5.15361 c 0.11206,-6.3865 -0.56001,-9.74807 -2.91294,-14.56598 -2.57703,-5.49016 -6.94654,-9.2999 -12.99692,-11.20464 -1.92576,-0.61626 -5.01677,-0.96729 -7.74353,-0.94472 z m -86.39799,0.32564 c -1.17876,-0.0153 -2.41989,0.17791 -4.12156,0.61909 -1.23249,0.33613 -2.80132,0.89678 -3.47359,1.23292 -1.79271,1.0084 -4.70542,3.69702 -5.82587,5.48973 l -1.0084,1.56906 -0.22452,-3.69747 -0.22388,-3.69745 -5.602,-0.11231 -5.71425,-0.22387 -0.33614,1.23227 c -0.56022,1.45658 -0.33657,51.65244 0.11167,52.10062 0.44818,0.56022 10.75648,0.56022 11.20466,0 0.22409,-0.11205 0.44796,-7.39472 0.56,-16.02213 l 0.22452,-15.79824 1.23227,-2.35294 c 2.68907,-5.15403 6.83449,-7.61923 13.33306,-7.84332 h 3.92199 l 0.22386,-2.0168 c 0.22408,-1.00839 0.33615,-3.69746 0.33615,-5.71426 v -3.80972 l -1.79294,-0.56 c -1.02941,-0.24509 -1.90814,-0.38335 -2.82497,-0.39522 z m -129.94755,1.29135 c -2.8011,0 -5.37769,0.11243 -5.48974,0.22453 -0.11205,0.22409 -0.22452,12.10079 -0.22452,26.5545 0,24.53768 0,26.21837 0.67227,26.5545 0.44816,0.11205 2.91359,0.33591 5.60264,0.22387 3.69747,0 4.92951,-0.11179 5.1536,-0.56 0.56022,-1.0084 0.56022,-51.09242 0,-52.21287 -0.33614,-0.78431 -0.89636,-0.78453 -5.71425,-0.78453 z m 161.64188,8.8143 c 2.04486,-0.008 4.1557,0.3033 5.4162,0.93356 3.47338,1.68065 5.93835,5.37856 6.38653,9.63625 l 0.22453,2.1284 -11.98919,0.11231 h -11.98851 l 0.22386,-1.68066 c 0.44818,-2.57703 2.80132,-7.17061 4.48199,-8.62719 0.78431,-0.67226 2.12884,-1.56906 3.0252,-1.90519 1.07842,-0.39216 2.62893,-0.59131 4.21939,-0.59743 z m 55.2407,0.11815 c 2.48888,-0.0127 5.13368,0.28316 6.1981,0.81538 2.91316,1.68067 5.26587,5.82675 5.602,9.63625 l 0.1123,2.0168 -12.10078,0.11167 -11.98918,0.11231 0.22452,-1.68066 c 0.44818,-2.68907 2.5768,-7.05902 4.25747,-8.51559 0.89633,-0.67227 2.35293,-1.56863 3.36132,-2.01679 1.0014,-0.31864 2.63136,-0.47095 4.33428,-0.47926 z" /><path
       style="fill:#526760;fill-opacity:1;fill-rule:evenodd;stroke:none;stroke-width:0.336133"
       d="m 272.45545,16.796063 c 1.7927,1.120444 2.8011,2.464976 3.36132,4.481773 0.44818,1.568621 0.44818,1.568621 0.44818,1.568621 -0.11205,40.896177 -0.11205,40.896177 -0.11205,40.896177 -0.11205,40.896166 -0.11205,40.896166 -0.11205,40.896166 -0.67226,1.23249 -0.67226,1.23249 -0.67226,1.23249 -0.78431,1.45658 -2.68907,3.24929 -4.03359,3.80951 -1.0084,0.44818 -1.0084,0.44818 -1.0084,0.44818 -18.93549,0 -18.93549,0 -18.93549,0 -10.53217,0 -19.27163,-0.11205 -19.49572,-0.33613 -0.33613,-0.22409 -0.33613,-0.22409 -0.33613,-0.22409 0,-3.13725 0,-3.13725 0,-3.13725 0,-3.02519 0,-3.02519 0,-3.02519 0.44818,-0.56022 0.44818,-0.56022 0.44818,-0.56022 0.44817,-0.44818 0.44817,-0.44818 0.44817,-0.44818 18.26323,0 18.26323,0 18.26323,0 18.37527,0 18.37527,0 18.37527,0 C 268.98206,63.182412 268.98206,63.182412 268.98206,63.182412 268.87,23.854856 268.87,23.854856 268.87,23.854856 c -0.22409,0 -0.22409,0 -0.22409,0 -0.22409,0 -18.59936,0 -41.00822,0 -40.67209,0 -40.67209,0 -40.67209,0 0,28.459258 0,28.459258 0,28.459258 0,28.347213 0,28.347213 0,28.347213 -1.45658,0.784311 -1.45658,0.784311 -1.45658,0.784311 -1.45656,0.784314 -3.36132,2.801112 -4.70585,4.817897 -0.56023,1.008399 -0.56023,1.008399 -0.56023,1.008399 -0.11205,-2.240875 -0.11205,-2.240875 -0.11205,-2.240875 0,-1.120451 0,-15.910296 0,-32.716945 0.11205,-30.476056 0.11205,-30.476056 0.11205,-30.476056 0.44818,-1.344532 0.44818,-1.344532 0.44818,-1.344532 0.67227,-1.680665 2.24089,-3.361329 3.80951,-4.033595 1.23248,-0.560222 1.23248,-0.560222 1.23248,-0.560222 42.68889,0 42.68889,0 42.68889,0 42.68889,0 42.68889,0 42.68889,0 1.34453,0.896354 1.34453,0.896354 1.34453,0.896354 z"
       id="path3175" /><path
       style="fill:#526760;fill-opacity:1;fill-rule:evenodd;stroke:none;stroke-width:0.336133"
       d="m 258.00173,29.793205 c 1.68066,0.896354 2.46498,1.792709 3.24929,3.585418 1.90475,4.481774 -0.56023,9.635812 -5.042,10.420122 -1.45657,0.224089 -1.45657,0.224089 -1.45657,0.224089 -1.45658,-0.336133 -1.45658,-0.336133 -1.45658,-0.336133 -1.90475,-0.672266 -3.36133,-1.904754 -4.14564,-3.809507 -0.67227,-1.680665 -0.67227,-1.680665 -0.67227,-1.680665 0,-1.680665 0,-1.680665 0,-1.680665 -0.11205,-4.257685 2.80111,-7.394925 6.8347,-7.394925 1.56862,0 1.56862,0 1.56862,0 1.12045,0.672266 1.12045,0.672266 1.12045,0.672266 z"
       id="path3177" /><path
       style="fill:#526760;fill-opacity:1;fill-rule:evenodd;stroke:none;stroke-width:0.336133"
       d="m 230.99905,29.793205 c 1.79271,0.896354 2.68906,2.128842 3.36133,4.033596 0.67227,1.792709 0.67227,1.792709 0.67227,1.792709 -0.22409,1.792709 -0.22409,1.792709 -0.22409,1.792709 -0.11205,1.792709 -0.11205,1.792709 -0.11205,1.792709 -1.0084,1.680665 -1.0084,1.680665 -1.0084,1.680665 -1.0084,1.56862 -1.0084,1.56862 -1.0084,1.56862 -1.56863,0.784311 -1.56863,0.784311 -1.56863,0.784311 -2.0168,0.896355 -3.58542,1.008398 -5.49016,0.224088 -1.79272,-0.896355 -2.68907,-1.792709 -3.47338,-3.697463 -0.67227,-1.56862 -0.67227,-1.56862 -0.67227,-1.56862 0,-1.680665 0,-1.680665 0,-1.680665 -0.11205,-4.257685 2.80111,-7.394925 6.8347,-7.394925 1.56862,0 1.56862,0 1.56862,0 1.12045,0.672266 1.12045,0.672266 1.12045,0.672266 z"
       id="path3179" /><path
       style="fill:#526760;fill-opacity:1;fill-rule:evenodd;stroke:none;stroke-width:0.336133"
       d="m 204.44454,29.905249 c 1.56863,0.78431 1.56863,0.78431 1.56863,0.78431 0.89635,1.792709 0.89635,1.792709 0.89635,1.792709 1.0084,1.792709 1.0084,1.792709 1.0084,1.792709 0,2.016798 0,2.016798 0,2.016798 0,2.128843 0,2.128843 0,2.128843 -0.56022,1.344531 -0.56022,1.344531 -0.56022,1.344531 -0.56022,1.568621 -2.35293,3.249286 -4.14564,3.921552 -1.34454,0.448178 -1.34454,0.448178 -1.34454,0.448178 -1.68065,-0.336134 -1.68065,-0.336134 -1.68065,-0.336134 -1.68067,-0.224089 -1.68067,-0.224089 -1.68067,-0.224089 -1.34453,-1.232488 -1.34453,-1.232488 -1.34453,-1.232488 -0.67227,-0.672265 -1.56863,-1.792709 -1.90476,-2.464974 -0.56022,-1.232487 -0.56022,-1.232487 -0.56022,-1.232487 0,-2.128843 0,-2.128843 0,-2.128843 0,-2.016798 0,-2.016798 0,-2.016798 0.56022,-1.232488 0.56022,-1.232488 0.56022,-1.232488 1.79271,-3.697462 5.60221,-5.041993 9.18763,-3.361329 z"
       id="path3181" /><path
       style="fill:#526760;fill-opacity:1;fill-rule:evenodd;stroke:none;stroke-width:0.336133"
       d="m 257.32946,54.106821 c 0.67227,0.224091 1.79271,1.008399 2.57702,1.792712 1.23249,1.344531 1.23249,1.344531 1.23249,1.344531 0.44818,1.568619 0.44818,1.568619 0.44818,1.568619 0.44818,2.128845 0.44818,3.473376 -0.22409,5.266085 -0.78431,1.904754 -1.56862,2.801107 -3.24929,3.697462 -1.34453,0.78431 -1.34453,0.78431 -1.34453,0.78431 -1.34452,0 -1.34452,0 -1.34452,0 -1.56863,0 -3.80952,-0.896353 -4.92996,-1.904752 -1.0084,-1.008399 -2.0168,-3.697463 -2.0168,-5.378128 0,-1.568621 0,-1.568621 0,-1.568621 0.78431,-1.792708 0.78431,-1.792708 0.78431,-1.792708 0.78431,-1.904754 0.78431,-1.904754 0.78431,-1.904754 1.45658,-1.008399 1.45658,-1.008399 1.45658,-1.008399 1.45658,-1.008399 1.45658,-1.008399 1.45658,-1.008399 1.56862,-0.112039 1.56862,-0.112039 1.56862,-0.112039 0.89636,-0.112051 2.12883,0 2.8011,0.224087 z"
       id="path3183" /><path
       style="fill:#526760;fill-opacity:1;fill-rule:evenodd;stroke:none;stroke-width:0.336133"
       d="m 230.32678,54.106821 c 0.67227,0.224091 1.79271,1.008399 2.46498,1.680666 1.23249,1.344531 1.23249,1.344531 1.23249,1.344531 0.44817,1.680665 0.44817,1.680665 0.44817,1.680665 0.89636,3.137243 0.44818,5.378127 -1.34453,7.506972 -1.23249,1.456575 -3.0252,2.240885 -4.81791,2.240885 -1.45657,0 -1.45657,0 -1.45657,0 -1.56862,-0.78431 -1.56862,-0.78431 -1.56862,-0.78431 -1.56862,-0.784309 -1.56862,-0.784309 -1.56862,-0.784309 -1.0084,-1.680665 -1.0084,-1.680665 -1.0084,-1.680665 -1.12045,-1.680664 -1.12045,-1.680664 -1.12045,-1.680664 0,-2.240888 0,-2.240888 0,-2.240888 0,-2.240888 0,-2.240888 0,-2.240888 0.78431,-1.568618 0.78431,-1.568618 0.78431,-1.568618 0.67227,-1.568621 0.67227,-1.568621 0.67227,-1.568621 1.45658,-1.008399 1.45658,-1.008399 1.45658,-1.008399 1.45658,-1.008399 1.45658,-1.008399 1.45658,-1.008399 1.56862,-0.112039 1.56862,-0.112039 1.56862,-0.112039 0.89634,-0.112051 2.12883,0 2.8011,0.224087 z"
       id="path3185" /><path
       style="fill:#526760;fill-opacity:1;fill-rule:evenodd;stroke:none;stroke-width:0.336133"
       d="m 203.99637,54.442955 c 2.80111,1.344532 3.92155,3.473376 3.92155,6.946749 0,2.016798 0,2.016798 0,2.016798 -0.56022,1.120442 -0.56022,1.120442 -0.56022,1.120442 -0.22409,0.560223 -1.12044,1.680664 -1.79271,2.352931 -1.34453,1.232489 -1.34453,1.232489 -1.34453,1.232489 -1.34454,0.336132 -1.34454,0.336132 -1.34454,0.336132 -3.92154,0.784309 -7.39492,-1.904754 -8.29128,-6.162437 -0.22409,-1.232488 -0.22409,-1.232488 -0.22409,-1.232488 0.44818,-1.680665 0.44818,-1.680665 0.44818,-1.680665 0.44818,-2.128842 2.0168,-4.033596 3.92156,-4.929951 1.90474,-0.896352 3.36132,-0.896352 5.26608,0 z"
       id="path3187" /><path
       style="fill:#526760;fill-opacity:1;fill-rule:evenodd;stroke:none;stroke-width:0.336133"
       d="m 258.00173,78.756575 c 3.13724,1.568618 4.81791,6.162432 3.36133,9.747848 -0.67227,1.680669 -1.79271,2.913158 -3.80951,3.921557 -1.56862,0.784309 -1.56862,0.784309 -1.56862,0.784309 -1.45657,-0.336129 -1.45657,-0.336129 -1.45657,-0.336129 -1.90476,-0.336142 -3.0252,-1.008399 -4.25769,-2.464978 -1.45658,-1.680669 -1.79271,-2.689068 -1.79271,-4.817904 0,-1.90476 0,-1.90476 0,-1.90476 0.56022,-1.344527 0.56022,-1.344527 0.56022,-1.344527 0.44818,-0.784309 1.34454,-2.016798 2.12885,-2.689063 1.45657,-1.120443 1.45657,-1.120443 1.45657,-1.120443 2.12885,-0.22409 2.12885,-0.22409 2.12885,-0.22409 2.12883,-0.112039 2.12883,-0.112039 2.12883,-0.112039 1.12045,0.560223 1.12045,0.560223 1.12045,0.560223 z"
       id="path3189" /><path
       style="fill:#526760;fill-opacity:1;fill-rule:evenodd;stroke:none;stroke-width:0.336133"
       d="m 231.33518,78.868618 c 3.80951,2.240888 4.81791,8.179226 1.79271,11.540564 -1.0084,1.120438 -1.0084,1.120438 -1.0084,1.120438 -0.78431,0 -0.78431,0 -0.78431,0 -0.78431,0 -0.78431,0 -0.78431,0 -1.23249,-2.240888 -1.23249,-2.240888 -1.23249,-2.240888 -0.67227,-1.232489 -2.24088,-3.473364 -3.47337,-5.041982 -2.24089,-2.801112 -2.24089,-2.801112 -2.24089,-2.801112 0.11205,-0.784311 0.11205,-0.784311 0.11205,-0.784311 0.11205,-0.896353 0.11205,-0.896353 0.11205,-0.896353 1.34454,-0.784313 1.34454,-0.784313 1.34454,-0.784313 1.34453,-0.784308 1.34453,-0.784308 1.34453,-0.784308 1.79271,0.112038 1.79271,0.112038 1.79271,0.112038 1.90476,0 1.90476,0 1.90476,0 1.12043,0.560223 1.12043,0.560223 1.12043,0.560223 z"
       id="path3191" /><path
       style="fill:#526760;fill-opacity:1;fill-rule:evenodd;stroke:none;stroke-width:0.336133"
       d="m 201.41934,81.221549 c -1.45656,0.112039 -1.79271,0.224089 -1.90474,0.224089 -0.22409,0 -0.56022,2.913151 -0.67227,5.266077 0,1.008399 0,1.008399 0,1.008399 -0.78431,0.22409 -0.78431,0.22409 -0.78431,0.22409 -0.44818,0.112051 -1.12044,0.22409 -1.45658,0.336129 -0.78431,0.336141 -2.46497,1.232489 -2.91315,1.456579 -0.22409,0.112051 -0.33614,0.22409 -0.33614,0.22409 -0.11205,0 -1.12044,-0.89636 -2.46496,-2.016798 -1.34454,-1.008399 -2.46498,-1.904759 -2.46498,-1.904759 -0.22409,-0.112051 -1.68067,1.12045 -2.91316,2.352939 -1.0084,1.120438 -2.24089,2.689055 -2.24089,2.801107 0.33614,0.44818 1.56863,1.904746 2.57703,3.137235 0.78431,0.784309 1.34453,1.568631 1.34453,1.568631 0,0.112051 0,0.336128 -0.22409,0.560218 -0.44818,0.784309 -1.12044,2.016798 -1.34453,2.801107 -0.11205,0.44818 -0.33614,1.008398 -0.44818,1.344528 -0.11205,0.22409 -0.11205,0.56022 -0.11205,0.56022 0,0.11205 -0.11205,0.22409 -0.56023,0.22409 -2.91315,0.22409 -5.60221,0.56023 -5.71425,0.67227 -0.22409,0.22409 -0.33614,3.13723 -0.22409,4.8179 0,1.12045 0.22409,2.24089 0.33613,2.35293 0,0 2.12884,0.22409 5.60221,0.56023 0.56023,0.11205 0.56023,0.11205 0.56023,0.11205 0,0.22408 0,0.22408 0,0.22408 0,0.22409 0.11205,0.44818 0.22408,0.67227 0,0.22409 0.22409,0.67227 0.33614,1.23249 0.33613,0.89636 0.89635,2.12883 1.45658,2.91316 0.11205,0.22407 0.22408,0.44816 0.22408,0.44816 0,0.11205 -0.67226,0.78431 -1.34453,1.68067 -1.90475,2.35293 -2.57702,3.13724 -2.46498,3.24929 0.22409,0.44818 1.45658,1.79271 2.24089,2.68907 1.12045,1.12043 2.8011,2.46496 2.91316,2.35292 0,0 0.67225,-0.56022 1.56861,-1.34452 0.78431,-0.67227 1.79271,-1.45658 2.24089,-1.79273 0.44818,-0.33612 0.78431,-0.67225 0.89635,-0.7843 0.11205,-0.11206 0.22409,0 0.89636,0.44818 1.0084,0.56021 2.24089,1.00839 3.47338,1.34452 0.44818,0.11206 0.89634,0.22409 0.89634,0.22409 0.11205,0.11206 0.22409,0.89636 0.33614,2.24089 0.22409,2.24089 0.44817,3.92156 0.44817,4.0336 0.11205,0.22409 2.24089,0.33614 4.25769,0.22409 1.45658,0 2.91316,-0.11205 3.02519,-0.22409 0.11206,0 0.22409,-1.34453 0.33615,-2.91315 0.11205,-1.56863 0.33612,-3.02519 0.33612,-3.13725 0,-0.33612 0,-0.22409 1.23249,-0.67225 1.12044,-0.33615 2.57702,-0.89636 3.36133,-1.45658 0.44818,-0.22409 0.67227,-0.44818 0.78431,-0.33614 0,0 0.44818,0.33614 1.0084,0.78432 1.68067,1.45656 3.8095,3.13723 3.92155,3.13723 0.22409,-0.11205 1.0084,-0.78431 1.45658,-1.12043 1.0084,-0.89637 3.58542,-3.92156 3.58542,-4.0336 0,-0.11205 -0.78431,-1.12045 -1.79271,-2.35294 -1.12045,-1.23249 -2.0168,-2.24089 -2.12885,-2.35293 -0.11205,-0.22409 -0.11205,-0.22409 -0.11205,-0.22409 0.44818,-0.89636 0.44818,-0.89636 0.44818,-0.89636 0.56022,-1.12043 1.12045,-2.46496 1.34454,-3.47336 0.22408,-0.78431 0.22408,-0.78431 0.22408,-0.78431 1.34454,-0.11205 1.34454,-0.11205 1.34454,-0.11205 0.78431,0 2.24089,-0.11205 3.13723,-0.22409 1.79272,-0.22409 1.79272,-0.22409 1.79272,-0.22409 0.11206,-0.11205 0.11206,-0.11205 0.11206,-0.11205 0.11205,-0.56022 0.22409,-1.68067 0.22409,-2.91315 0,-1.68067 -0.11206,-4.25768 -0.33615,-4.36973 -0.11205,0 -1.45656,-0.22409 -3.13723,-0.33613 -1.68067,-0.11205 -3.0252,-0.33613 -3.13725,-0.33613 0,0 -0.11205,-0.22409 -0.11205,-0.44818 -0.22409,-1.008399 -0.78431,-2.689068 -1.45657,-3.921545 -0.56023,-0.89636 -0.56023,-0.89636 -0.56023,-0.89636 0.33614,-0.336128 0.33614,-0.336128 0.33614,-0.336128 0.11205,-0.224091 1.0084,-1.232489 1.90475,-2.35294 0.89636,-1.120437 1.68067,-2.128836 1.79271,-2.128836 0,-0.112052 -0.56022,-0.89636 -1.56862,-2.016798 -1.12044,-1.12045 -3.58542,-3.249287 -3.69747,-3.137248 -0.67226,0.44818 -2.8011,2.240888 -3.58541,2.913158 -0.56022,0.44818 -1.12044,0.89636 -1.12044,0.89636 -0.11205,0.112052 -0.44818,0 -1.68067,-0.67227 -1.12044,-0.560219 -1.90475,-0.89636 -2.46498,-1.008399 -0.44817,-0.22409 -0.89635,-0.22409 -0.89635,-0.22409 -0.22409,0 -0.22409,0 -0.44818,-1.904759 -0.11205,-1.456566 -0.44818,-4.481763 -0.44818,-4.593807 -0.11205,0 -1.00839,-0.112051 -1.90474,-0.224089 -0.89636,0 -2.68907,-0.112038 -3.36134,0 z m 3.36134,15.462116 c 1.68066,0.22409 3.13724,1.120438 4.48178,2.464966 1.34452,1.344539 2.24087,2.801119 2.57701,4.481779 0.67226,3.69746 -0.78431,7.39493 -3.92155,9.41173 -1.34453,0.89634 -2.80111,1.34452 -4.48178,1.45656 -1.68066,0 -2.91315,-0.22409 -4.36972,-0.89635 -1.68067,-0.89636 -3.0252,-2.12884 -4.0336,-3.92155 -0.67227,-1.34453 -0.89635,-2.57702 -0.89635,-4.25769 0,-2.01679 0.56022,-3.69745 1.79271,-5.26608 1.56862,-2.128837 3.69745,-3.361326 5.8263,-3.585416 0.89635,0 2.46498,0 3.0252,0.112051 z"
       id="path3193" /></g></svg>
