<?xml version="1.0" encoding="UTF-8" standalone="no"?>
<!-- Created with Inkscape (http://www.inkscape.org/) -->

<svg
   width="500mm"
   height="250mm"
   viewBox="0 0 500 250"
   version="1.1"
   id="svg5"
   xml:space="preserve"
   inkscape:version="1.2 (dc2aedaf03, 2022-05-15)"
   sodipodi:docname="distree_stck.svg"
   xmlns:inkscape="http://www.inkscape.org/namespaces/inkscape"
   xmlns:sodipodi="http://sodipodi.sourceforge.net/DTD/sodipodi-0.dtd"
   xmlns="http://www.w3.org/2000/svg"
   xmlns:svg="http://www.w3.org/2000/svg"><sodipodi:namedview
     id="namedview7"
     pagecolor="#ffffff"
     bordercolor="#000000"
     borderopacity="0.25"
     inkscape:showpageshadow="2"
     inkscape:pageopacity="0.0"
     inkscape:pagecheckerboard="0"
     inkscape:deskcolor="#d1d1d1"
     inkscape:document-units="mm"
     showgrid="false"
     inkscape:zoom="0.35355339"
     inkscape:cx="1286.9343"
     inkscape:cy="200.81832"
     inkscape:window-width="1920"
     inkscape:window-height="1009"
     inkscape:window-x="-8"
     inkscape:window-y="-8"
     inkscape:window-maximized="1"
     inkscape:current-layer="layer1" /><defs
     id="defs2"><pattern
       id="EMFhbasepattern"
       patternUnits="userSpaceOnUse"
       width="6"
       height="6"
       x="0"
       y="0" /><pattern
       id="EMFhbasepattern-5"
       patternUnits="userSpaceOnUse"
       width="6"
       height="6"
       x="0"
       y="0" /><pattern
       id="EMFhbasepattern-3"
       patternUnits="userSpaceOnUse"
       width="6"
       height="6"
       x="0"
       y="0" /><pattern
       id="EMFhbasepattern-6"
       patternUnits="userSpaceOnUse"
       width="6"
       height="6"
       x="0"
       y="0" /></defs><g
     inkscape:label="Capa 1"
     inkscape:groupmode="layer"
     id="layer1"><path
       style="fill:#ffffff;fill-rule:evenodd;stroke:#000000;stroke-width:0.336708"
       d="m 321.9088,231.12985 c -0.1318,0.0984 0.0229,-0.15763 -0.62781,0.52822 0.28591,-0.26878 0.27046,-0.17089 0.62781,-0.52822 z"
       id="path2527" /><path
       style="fill:#ffffff;fill-rule:evenodd;stroke:#000000;stroke-width:0.336708"
       d="m 313.88585,230.43926 c 0.28128,0.35159 0.47315,0.48899 0.73171,0.78367 0.11137,0.11617 0.0988,0.1572 0.22082,0.27928 z"
       id="path2525" /><path
       style="fill:#ffffff;fill-rule:evenodd;stroke:#000000;stroke-width:0.336708"
       d="m 227.08387,227.89989 c 0.0612,-0.14929 0.31122,-0.7345 -0.12556,0.1905 0.0375,-0.0717 0.089,-0.11732 0.12556,-0.1905 z"
       id="path2523" /><path
       style="fill:#ffffff;fill-rule:evenodd;stroke:#000000;stroke-width:0.336708"
       d="m 422.07658,220.92256 c -0.0375,0.0541 -0.0722,0.0945 -0.052,0.0606 0.0153,-0.0225 0.0367,-0.038 0.052,-0.0606 z"
       id="path2521" /><path
       style="fill:#ffffff;fill-rule:evenodd;stroke:#000000;stroke-width:0.336708"
       d="m 417.14072,219.6085 c 0.0228,0.036 0.0529,0.0658 0.0758,0.10175 0.0115,0.0177 0.0165,0.0386 0.0282,0.0563 z"
       id="path2519" /><path
       style="fill:#ffffff;fill-rule:evenodd;stroke:#000000;stroke-width:0.336708"
       d="m 348.82658,190.70554 c -10e-4,0.0284 0.001,0.0561 0,0.0845 -5.2e-4,0.0133 -0.003,0.0257 -0.004,0.039 z"
       id="path2517" /><path
       style="fill:#ffffff;fill-rule:evenodd;stroke:#000000;stroke-width:0.336708"
       d="m 310.5931,186.8326 c 0,7.7e-4 0,10e-4 0,0.002 l -3.40315,0.11473 z"
       id="path2515" /><path
       style="fill:#ffffff;fill-rule:evenodd;stroke:#000000;stroke-width:0.336708"
       d="m 56.655754,177.85063 c 0.126419,0.5191 0.470632,1.25153 0.686259,1.8726 -0.494808,-1.0402 -0.61949,-1.44882 -0.686259,-1.8726 z"
       id="path2513" /><path
       style="fill:#ffffff;fill-rule:evenodd;stroke:#000000;stroke-width:0.336708"
       d="m 232.01108,170.90577 c 0.61735,-0.006 1.86839,-0.0544 0,0 z"
       id="path2511" /><path
       style="fill:#ffffff;fill-rule:evenodd;stroke:#000000;stroke-width:0.336708"
       d="m 217.06492,168.31662 c -0.001,0.003 -8.7e-4,0.008 -0.002,0.0111 -0.002,0.004 -0.007,0.008 -0.009,0.013 z"
       id="path2509" /><path
       style="fill:#ffffff;fill-rule:evenodd;stroke:#000000;stroke-width:0.336708"
       d="m 239.44518,149.67073 c -0.0247,0.007 -0.0468,0.0194 -0.0714,0.0259 -0.0381,0.01 -0.0745,0.0132 -0.11257,0.0238 z"
       id="path2507" /><path
       style="fill:#ffffff;fill-rule:evenodd;stroke:#000000;stroke-width:0.336708"
       d="m 136.44577,149.37631 c 5.05129,0.29148 4.59123,0.40553 5.95984,0.63214 1.43765,0.36776 3.9049,1.73279 6.06159,3.17151 0.10874,2.63846 0.16887,7.17049 0.16887,17.5483 0,10.8153 -0.1094,15.76669 -0.26195,17.92716 -2.50821,2.03261 -5.52309,3.63537 -6.82362,3.91405 a 12.904974,12.904974 0 0 0 -0.17103,0.0368 c -4.61697,1.0553 -9.2415,0.2725 -13.15582,-2.07609 a 12.904974,12.904974 0 0 0 -0.0974,-0.0584 c -0.71658,-0.42151 -5.65185,-5.54262 -6.0183,-6.23694 a 12.904974,12.904974 0 0 0 -0.10607,-0.19917 c -4.24102,-7.70451 -3.75265,-19.78996 0.82697,-26.76192 a 12.904974,12.904974 0 0 0 0.004,-0.009 c 2.19047,-3.34049 8.25462,-7.22093 11.94999,-7.79347 a 12.904974,12.904974 0 0 0 0.29226,-0.0477 c -0.30495,0.0544 0.45101,-0.0508 1.37035,-0.0477 z"
       id="path2505" /><path
       style="fill:#ffffff;fill-rule:evenodd;stroke:#000000;stroke-width:0.336708"
       d="m 265.21127,148.75499 c 6.88105,0.15272 -0.90193,0.0785 7.6874,0.11907 -0.0441,0.52448 -0.0298,1.30174 -0.0584,1.86394 l 8.26107,-0.24896 a 12.904974,12.904974 0 0 0 -0.68409,0.039 c -1.69733,0.14144 -3.05317,0.24992 -4.89041,0.64079 -0.66191,0.14082 -1.7113,0.43215 -2.72338,0.74471 -0.0408,1.20974 -0.12123,2.2113 -0.12123,3.77335 v -3.74087 c -1.12672,0.36403 -2.26382,0.87583 -3.65211,2.06959 -1.47926,-0.85788 -2.97338,-1.64931 -4.50507,-2.28609 0.004,-0.0122 0.006,-0.0114 0.0111,-0.0238 0.14803,-0.37591 0.32039,-0.8457 0.50008,-1.5522 0.0789,-0.31025 0.10319,-0.76512 0.17535,-1.39849 z"
       id="path2503" /><path
       style="fill:#ffffff;fill-rule:evenodd;stroke:#000000;stroke-width:0.336708"
       d="m 254.80915,148.36532 c -2.10576,0.18522 -2.62619,0.19731 -3.02213,0.20783 0.54361,-0.0241 2.55837,-0.16265 3.02213,-0.20783 z"
       id="path2501" /><path
       style="fill:#ffffff;fill-rule:evenodd;stroke:#000000;stroke-width:0.336708"
       d="m 258.72754,147.99297 c 0.0457,0.006 0.12566,0.028 0.16886,0.0346 l -1.35737,0.11257 z"
       id="path2499" /><path
       style="fill:#ffffff;fill-rule:evenodd;stroke:#000000;stroke-width:0.336708"
       d="m 199.55992,146.41912 a 12.904974,12.904974 0 0 0 1.05645,0.50441 l -1.05645,-0.21 c 6e-5,-0.11777 -6e-5,-0.17627 0,-0.29441 z"
       id="path2497" /><path
       style="fill:#ffffff;fill-rule:evenodd;stroke:#000000;stroke-width:0.336708"
       d="m 253.59034,144.79331 c 0.54007,0.54005 0.70076,0.493 1.13655,0.86378 a 12.904974,12.904974 0 0 0 0.24462,0.26845 z"
       id="path2495" /><path
       style="fill:#ffffff;fill-rule:evenodd;stroke:#000000;stroke-width:0.336708"
       d="m 201.40438,136.07545 c -0.0729,0.0897 -0.11687,0.14428 -0.18618,0.22947 0.0719,-0.1365 0.11285,-0.12721 0.18618,-0.22947 z"
       id="path2493" /><path
       style="fill:#ffffff;fill-rule:evenodd;stroke:#000000;stroke-width:0.336708"
       d="m 201.5018,135.96938 c -0.009,0.01 -0.0144,0.0144 -0.009,0.007 0.003,-0.003 0.006,-0.003 0.009,-0.007 z"
       id="path2491" /><path
       style="fill:#ffffff;fill-rule:evenodd;stroke:#000000;stroke-width:0.336708"
       d="m 230.132,133.79154 a 12.904974,12.904974 0 0 0 0.38533,0.0627 l -0.0563,0.004 c 4.7e-4,0.009 0.61699,0.1221 -0.32905,-0.0672 z"
       id="path2489" /><path
       style="fill:#ffffff;fill-rule:evenodd;stroke:#000000;stroke-width:0.336708"
       d="m 190.69702,132.43851 c 0,0.129 0.0242,0.20471 0.0259,0.32905 0.01,0.18754 -0.009,0.33711 0.004,0.53039 z"
       id="path2487" /><path
       style="fill:#ffffff;fill-rule:evenodd;stroke:#000000;stroke-width:0.336708"
       d="m 58.532694,128.76908 c -0.228754,0.5275 -1.099025,3.14265 -1.305408,3.92271 -0.07474,-1.41784 2.072994,-5.07343 1.305408,-3.92271 z"
       id="path2485" /><path
       style="fill:#ffffff;fill-rule:evenodd;stroke:#000000;stroke-width:0.336708"
       d="m 231.17113,127.9789 c 0.95971,-0.44948 3.54037,3.5736 2.59782,2.84679 0,0.14332 -0.4615,1.51915 -0.71224,1.97001 -0.2756,0.30097 -0.95502,0.88551 -2.37051,1.04346 -1.44137,-0.28882 -2.39203,-1.05414 -2.18217,-0.84429 0.22411,0.22411 -0.45875,-0.56403 -0.67111,-1.62581 l -0.0411,-0.22298 c -0.10995,-0.60464 0.33921,-1.98078 1.31623,-2.66276 0.47946,-0.25613 1.28323,-0.47927 1.20582,-0.47411 z"
       id="path2483" /><path
       style="fill:#ffffff;fill-rule:evenodd;stroke:#000000;stroke-width:0.336708"
       d="m 78.085654,125.25552 c 0.245208,0.22879 0.349567,0.26465 0.09742,0.15586 -0.03366,-0.0514 -0.0608,-0.10042 -0.09742,-0.15586 z"
       id="path2481" /><path
       style="fill:#ffffff;fill-rule:evenodd;stroke:#000000;stroke-width:0.336708"
       d="m 123.35708,117.63957 c -0.0209,0.0173 -0.0426,0.0332 -0.0325,0.0238 0.0111,-0.009 0.0217,-0.0151 0.0325,-0.0238 z"
       id="path2479" /><path
       style="fill:#ffffff;fill-rule:evenodd;stroke:#000000;stroke-width:0.336708"
       d="m 307.35883,116.86455 c -0.009,0.0209 -0.0187,0.0397 -0.0152,0.0281 0.003,-0.009 0.0114,-0.0187 0.0152,-0.0281 z"
       id="path2477" /><path
       style="fill:#ffffff;fill-rule:evenodd;stroke:#000000;stroke-width:0.336708"
       d="m 164.54342,110.42844 c 0.42173,0.12568 0.61718,0.21248 0.7209,0.31174 -0.12975,-0.0641 -0.15489,-0.0742 -0.30958,-0.15154 -0.14602,-0.073 -0.26698,-0.09 -0.41132,-0.1602 z"
       id="path2475" /><path
       style="fill:#ffffff;fill-rule:evenodd;stroke:#000000;stroke-width:0.336708"
       d="m 76.529124,104.72404 c 0.130424,0.1463 0.295544,0.31824 0.430806,0.46762 -0.137786,0.10906 -0.270144,0.22152 -0.406994,0.33122 -0.0085,-0.21626 -0.01475,-0.59424 -0.02381,-0.79884 z"
       id="path2473" /><path
       style="fill:#ffffff;fill-rule:evenodd;stroke:#000000;stroke-width:1.002;stroke-dasharray:none"
       d="m 209.49877,18.744569 c -4.34463,1.861987 -11.41916,5.803193 -13.41993,9.008102 -0.46822,-0.709624 -0.89707,-1.410927 -1.6691,-2.227635 -2.17209,-2.29781 -5.47215,-3.926329 -7.83244,-4.537534 -4.72058,-1.222409 -7.37606,-0.876766 -12.46739,-0.876765 -3.98982,0 -6.2369,-0.006 -8.56633,0.186177 -2.32943,0.192223 -6.58685,1.515589 -8.46674,2.768848 0.45519,-0.30346 0.44438,-0.345942 -0.84646,0.508741 -1.29084,0.854683 -3.64404,3.054881 -4.85577,5.282243 -2.42346,4.454723 -2.10744,6.798001 -2.28392,9.962658 -0.35295,6.329311 -0.28814,17.024306 -0.3442,40.85512 -2e-5,0.01009 -2e-5,0.02021 0,0.0303 0,11.711449 -0.053,19.232026 -0.1104,26.108136 -3.44864,-0.5655 -6.97975,-0.74038 -12.57347,-0.74038 -1.37306,0 -2.10732,0.0911 -3.24729,0.11908 0.5267,-1.1939 1.03469,-2.39831 1.45911,-3.67159 0.0314,-0.0949 0.0617,-0.19017 0.0909,-0.28577 0.46249,-1.503133 1.20587,-4.847495 1.34437,-8.133362 0.13851,-3.285856 0.12556,-7.783775 0.12556,-16.875034 0,-8.698346 0.0125,-13.203775 -0.10829,-16.359799 -0.0604,-1.578012 -0.10131,-2.84922 -0.50224,-4.751854 -0.38701,-1.836466 -1.67775,-4.525721 -2.41382,-5.63728 -7.16137,-10.695615 -22.73947,-11.186187 -29.91827,0.153705 -2.64549,4.060807 -2.09746,5.237366 -2.26227,6.542188 -0.16864,1.335124 -0.24305,2.564973 -0.31391,4.201981 -0.0166,0.383273 -0.0175,1.417323 -0.0325,1.844456 -1.01613,-1.45697 -2.09398,-2.895894 -2.93338,-3.587163 -0.0109,-0.0086 -0.0216,-0.01733 -0.0325,-0.02598 -4.148633,-3.394325 -7.328584,-3.615059 -10.339342,-3.734372 -3.010757,-0.119314 -5.98731,0.08994 -9.845754,2.294745 -0.07987,0.04533 -0.159252,0.09152 -0.238135,0.13855 -1.99127,1.194815 -7.21899,7.208782 -8.033688,11.287554 -0.814698,4.07877 -0.586675,6.572946 -0.586675,11.337338 0,3.869041 -0.0045,5.872173 0.186177,8.239439 -3.290442,-1.933048 -7.02389,-3.074096 -9.728853,-3.074096 -1.391462,0 -4.410294,0.200112 -7.243601,1.573847 -2.587558,1.254582 -4.028343,2.723917 -5.059263,3.836124 -0.820318,0.856054 -4.723106,7.515153 -5.048439,10.993133 -0.212244,2.26899 -0.123309,5.77472 -0.09958,8.93002 -2.606846,-1.66366 -8.224807,-4.00931 -10.720358,-4.00931 -5.694329,0 -14.021152,5.09347 -16.322997,11.23343 -1.162341,2.93408 -0.921269,3.61165 -1.008821,4.63062 -0.0956,1.1126 -0.139257,2.20324 -0.171024,3.53953 -0.06317,2.65719 -0.05814,6.24213 -0.0022,11.20528 1.1e-5,0.002 -1.1e-5,0.002 0,0.004 3.03e-4,0.0268 -3.06e-4,0.0337 0,0.0606 0.05094,8.57096 -0.582228,13.52604 1.905072,20.26953 2.494756,6.76372 6.651077,10.15305 11.701034,15.2579 0.01583,0.0166 0.03171,0.0333 0.04763,0.0498 2.252623,2.25264 4.356423,4.26938 6.152514,5.90789 1.796091,1.63851 2.097104,2.34154 5.425125,4.33837 0.12292,0.0735 0.247055,0.14495 0.372354,0.21432 2.614719,1.45262 6.40595,2.72254 9.882558,3.15419 3.476607,0.43165 6.919097,0.4347 11.90886,0.37669 0.06206,-2.9e-4 0.124125,-0.001 0.186178,-0.002 0.159902,-0.004 0.05907,-8.1e-4 0.214321,-0.004 0.196867,0.281 0.332658,0.63399 0.536883,0.89624 2.303813,2.95841 5.008848,5.7224 9.659577,10.48656 0.01368,0.0137 0.02739,0.0275 0.04113,0.0411 7.354757,7.46451 8.365407,8.75422 10.241923,11.56898 l -0.125561,-0.19052 c 4.277339,6.66764 8.753128,11.84969 14.158152,16.14765 0.002,0.001 0.004,0.002 0.007,0.004 7.9e-4,6.4e-4 10e-4,0.001 0.002,0.002 7.431933,5.91586 15.834083,9.79298 25.004053,11.81578 0.013,0.002 0.026,0.004 0.039,0.007 3.47554,0.75556 7.33386,1.08242 13.29003,1.08242 6.83672,0 10.85052,-0.52759 14.63658,-1.61931 3.25064,-0.91146 6.34522,-2.14819 9.28505,-3.58933 1.61573,0.99992 6.08197,2.65749 8.35418,2.82947 2.37475,0.17974 4.4273,0.13422 8.46675,0.13422 4.1519,0 6.1756,0.0602 8.7157,-0.16236 2.5273,-0.2214 7.60556,-2.39565 8.71136,-3.1845 0.99118,-0.71061 1.53696,-1.33339 2.21899,-1.97002 1.22843,1.30914 2.58504,2.50377 3.75602,3.08925 0.84203,0.42155 1.72768,0.74968 2.64112,0.97851 3.69668,0.92426 3.10486,0.4981 4.59165,0.58017 1.44963,0.08 3.2041,0.11461 5.15236,0.039 1.93731,4.9e-4 3.41874,0.009 5.23894,-0.18185 0.98042,-0.10263 2.07942,-0.18721 3.99848,-0.87459 1.49047,-0.53388 3.98468,-1.79513 6.00747,-4.26693 0.37041,0.26986 0.62899,0.53406 1.03913,0.80748 6.08971,4.05985 13.37783,5.9378 21.02506,6.25643 0.0166,7.7e-4 0.0331,0.001 0.0498,0.002 7.7131,0.29105 15.51139,-1.30498 21.80441,-4.9337 3.24599,-1.8429 6.02012,-4.28765 8.36283,-7.07908 2.49305,3.70999 5.74697,6.94713 9.53835,8.92569 3.2612,1.71359 8.21593,2.8049 12.65789,3.0741 0.1298,0.008 0.2597,0.0135 0.38968,0.0173 4.43941,0.13453 8.82122,-0.35232 12.34399,-1.42447 0.19635,-0.0595 0.39124,-0.12381 0.58452,-0.19267 1.03595,-0.36999 2.06864,-0.75866 3.07192,-1.17335 0.43146,-0.17834 0.87309,-0.3732 1.37252,-0.60833 1.25313,0.6923 2.09425,0.65741 2.68442,0.8378 1.04863,0.32052 1.62979,0.40834 2.15836,0.49359 1.05715,0.17049 1.80411,0.2249 2.60865,0.27926 1.60906,0.10873 3.28643,0.14721 5.00081,0.14721 1.71437,0 3.38958,-0.0385 4.99865,-0.14721 0.80453,-0.0543 1.5515,-0.10874 2.60865,-0.27926 0.52856,-0.0852 1.10972,-0.17307 2.15835,-0.49359 0.861,-0.26317 2.21346,-0.0232 4.74753,-2.49608 3.30709,-2.34348 3.3145,-4.24377 3.68241,-5.15452 0.44899,-1.1114 0.54614,-1.63216 0.64297,-2.05877 0.19366,-0.85323 0.22662,-1.21736 0.2706,-1.57601 0.088,-0.71732 0.12175,-1.21757 0.1602,-1.80765 0.0769,-1.18019 0.13583,-2.57475 0.19268,-4.26261 0.11354,-3.3711 0.20767,-7.83033 0.2706,-12.66871 v -0.0173 l 0.007,-0.41998 c 2.18198,10.64029 7.59591,20.09588 16.4031,26.15143 17.22109,11.88714 40.71158,8.84453 53.64291,-7.08339 7.49776,8.97091 19.01745,14.07922 30.87948,13.95464 9.78264,-0.0166 19.68163,-3.24864 26.92861,-10.1142 0.0848,-0.0797 0.16851,-0.16052 0.25112,-0.24246 1.68046,-1.68044 3.16318,-3.43504 4.5895,-5.37316 0.71315,-0.96907 1.38829,-1.92947 2.11939,-3.25162 0.69325,-1.2537 2.58324,-1.66429 1.97867,-8.13768 -0.0957,-3.92986 -0.7601,-5.65545 -1.53055,-6.51405 1.54124,-1.87609 2.52195,-4.1489 2.82947,-6.55733 l 0.1234,-5.71306 c 7.7e-4,-0.0173 0.001,-0.0347 0.002,-0.052 0.14066,-8.01643 -1.30424,-15.35125 -4.48774,-21.91916 -4.27109,-9.04671 -12.47727,-16.11684 -22.15295,-19.16978 -4.57807,-1.45934 -8.38623,-1.68654 -12.58646,-1.65177 -1.87975,0.0155 -3.73766,0.12906 -5.82995,0.50657 -9.85609,1.66201 -18.12642,7.30235 -23.97142,15.05655 -4.68621,-6.63659 -11.14691,-11.73387 -19.29967,-13.99793 -4.84866,-1.44785 -8.38588,-1.59719 -12.25525,-1.63231 l -0.009,-0.004 c -1.3456,-0.0137 -2.22933,-0.18469 -5.00513,0.45677 -0.0753,0.0166 -0.15026,0.034 -0.22515,0.052 -0.48897,0.12224 -1.7713,0.43129 -2.53071,0.56935 -0.18991,0.034 -0.37901,0.0723 -0.5672,0.11474 -4.11839,0.94134 -7.9036,2.64742 -11.38064,4.89473 -1.47268,-1.82104 -3.41316,-3.20699 -5.61346,-4.0093 l -1.98734,-0.62132 c -0.28439,-0.0886 -0.57177,-0.16728 -0.8616,-0.23596 -1.69083,-0.40257 -3.7533,-0.75953 -5.95336,-0.78801 -2.83425,-0.0368 -5.49812,0.45533 -7.97532,1.09758 -0.0521,0.0134 -0.10397,0.0271 -0.15586,0.0411 -1.79579,0.48976 -3.20244,1.01245 -5.08958,1.85961 -0.99721,-0.57894 -2.06751,-1.02163 -3.18233,-1.31623 l -6.08325,-0.12124 -6.20879,-0.24462 c -2.16805,0.0996 -4.27595,0.74442 -6.12871,1.87476 -0.85928,-0.3876 -1.76101,-0.79298 -2.35752,-0.96119 -1.68901,-0.4763 -2.70955,-0.55014 -3.70623,-0.63214 -0.25851,-0.0213 -0.61138,-0.006 -0.8681,-0.0216 v -3.28842 -0.013 c 6.21825,-2.6323 7.7335,-4.55958 10.5753,-9.8306 l 0.0216,-0.0411 0.72305,-1.32489 c 1.02793,-1.88431 1.56962,-3.99525 1.57601,-6.14169 l 0.1234,-45.329873 0.12556,-45.327709 c 0.003,-1.214008 -0.16539,-2.422363 -0.50008,-3.589327 l -0.46985,-1.639083 c -1.29368,-4.657245 -5.24067,-9.909333 -9.31969,-12.458733 l 0.31173,0.201332 -1.48941,-0.991503 c -2.11817,-1.410098 -4.60592,-2.162526 -7.15051,-2.162689 -34.71371,-0.471845 -64.61354,0.04453 -96.68455,0.05181 z"
       id="path249"
       sodipodi:nodetypes="ccsssscssssccscccssssccsscccsccsscsscscscsssccsccsccscccscccccccccsccsssccccsccscccccccccccscssssssscsssssccccccccsscccccccscccccccccccccccccccccsscccccccccccccscc" /><path
       id="path362"
       style="fill:#568b7d;fill-opacity:1;fill-rule:evenodd;stroke:none;stroke-width:0.336708"
       d="m 174.10995,33.01506 c -7.85654,0 -8.86623,0.111793 -9.87636,0.785218 -2.69367,1.795778 -2.46964,-1.795514 -2.58188,45.904896 0,29.181426 -0.22404,43.323016 -0.4485,43.323016 -0.22448,0 -1.12236,-0.44873 -2.02026,-0.89769 -1.79579,-0.89788 -6.84664,-2.4694 -11.56056,-3.47953 -2.69367,-0.56118 -5.27534,-0.67342 -11.56057,-0.67342 -7.40758,0 -8.41773,0.11223 -12.12152,1.01014 -13.91729,3.59155 -24.13083,10.99916 -31.650657,22.8962 -5.499576,8.86667 -7.856109,18.07029 -7.519401,30.41627 0.112229,7.18312 0.336269,6.95844 -3.255293,3.25465 -2.132486,-2.24473 -2.13249,-2.24474 -2.356962,-17.17216 -0.224474,-18.40677 -0.11223,-20.53906 1.683544,-24.13062 1.571308,-3.03036 6.285679,-8.30572 9.989476,-11.22384 3.14261,-2.35697 9.539663,-6.2848 16.947263,-10.54978 2.8059,-1.57131 6.173,-3.81625 7.40759,-4.82638 2.91814,-2.35697 5.61205,-6.50993 6.84664,-10.21373 0.89789,-2.918134 0.89767,-3.030404 0.89767,-21.212674 0,-17.396622 4.4e-4,-18.406773 -0.78522,-19.529128 -1.90801,-2.918148 -6.62193,-3.029934 -8.41772,-0.111793 -0.44894,0.673423 -0.67363,4.376788 -0.78588,19.640927 -0.22446,18.743449 -0.22425,18.743704 -1.23437,20.651708 -1.2346,2.02026 -3.92828,4.60148 -5.38735,4.93818 -0.78566,0.22447 -1.79623,-0.56096 -6.95909,-5.948298 -8.529961,-8.866665 -7.96857,-7.744327 -7.96857,-16.498753 0,-7.856536 -0.336493,-9.203387 -2.244509,-10.774692 -1.2346,-1.010125 -4.040948,-1.122136 -5.612257,-0.224254 -2.244726,1.346831 -2.356963,2.132068 -2.356963,11.559909 0,8.529964 2.21e-4,8.530196 1.122583,11.223854 1.010126,2.132505 2.244733,3.704024 7.74431,9.203604 3.479323,3.59156 6.397473,6.73373 6.397473,6.84598 0,0.11223 -1.90802,1.34706 -4.04051,2.80612 -7.744301,4.82616 -14.702748,11.11119 -18.406545,16.72299 -1.346835,2.1325 -3.254858,5.94855 -4.040509,8.08102 -0.112244,0.67341 -0.337148,0.56162 -1.571749,-0.78522 -0.785651,-0.89787 -2.019819,-2.91857 -2.80547,-4.60212 -1.459074,-3.03038 -1.459075,-3.03018 -1.683546,-15.71287 C 63.669805,102.48917 63.55713,100.91786 62.99595,99.907717 62.098057,98.56089 60.751436,97.99993 58.731186,97.99993 c -1.346836,0 -1.908239,0.22424 -3.142838,1.571077 -1.571307,1.571313 -1.570871,1.571563 -1.458635,15.601073 0.112228,13.35612 0.224473,14.14178 1.010127,16.49875 1.459072,4.0405 3.254641,6.50928 8.641983,12.23332 5.162869,5.49957 5.163093,5.50004 5.163093,12.68315 0,7.07089 -1e-5,7.07089 -9.091147,7.07089 -8.754429,0 -9.203603,-4.4e-4 -10.550439,-0.89833 -2.244724,-1.45908 -10.325529,-9.42742 -12.009072,-11.89662 -1.459071,-2.13249 -1.459073,-2.1325 -1.683545,-15.48862 -0.224473,-13.24387 -0.224473,-13.24433 -1.683547,-14.7034 -1.234598,-1.12235 -1.683545,-1.34683 -3.367091,-1.34683 -2.132488,0 -3.592002,0.89811 -4.26542,2.80611 -0.336708,0.78566 -0.448946,4.93843 -0.336709,14.81521 0.11223,17.50886 -0.448717,16.16205 9.877019,26.60002 4.264978,4.26499 7.968785,7.63186 9.091146,8.30528 3.030381,1.68355 5.723847,2.02069 15.376164,1.90845 8.642193,-0.22447 8.642423,-0.22447 8.866893,1.01013 0.785657,3.3671 1.90803,4.82575 11.1114,14.25359 7.519833,7.63205 9.540098,10.10126 11.784821,13.46834 3.816038,5.94852 6.958441,9.54055 11.335651,13.01988 6.06076,4.82615 12.12198,7.63185 19.75404,9.31539 2.58144,0.56119 4.93797,0.78587 10.54978,0.78587 6.73418,0 7.63207,-0.11251 11.1114,-1.12257 4.82616,-1.34684 10.10128,-4.04029 14.14178,-6.95844 1.68354,-1.23461 3.14305,-2.24517 3.2553,-2.24517 0.11223,0 0.11181,0.8979 0.11181,2.02026 0,2.4692 0.78566,4.04093 2.35695,5.27554 1.12239,0.78566 1.68356,0.78522 9.76458,0.78522 8.30549,0 8.64242,2.1e-4 9.87702,-0.89767 0.78566,-0.56119 1.57107,-1.57132 1.9078,-2.35698 0.33671,-1.01013 0.44917,-22.89649 0.44917,-92.03402 0,-83.840482 -3e-5,-90.798784 -0.67343,-92.033381 -1.23458,-2.805908 -1.90826,-3.030383 -11.89726,-3.030383 z m -37.62066,103.45913 c 3.10397,0.01 6.79798,0.41518 9.11285,1.03249 4.82615,1.23461 10.32575,4.37766 14.14178,7.96922 1.79578,1.79579 1.796,1.79581 1.796,25.25318 0,23.56961 -4.3e-4,23.56964 -2.91859,26.26332 -4.26497,4.15273 -9.65212,7.18269 -14.36604,8.19281 -7.85653,1.79577 -15.93778,0.44917 -22.67196,-3.59136 -3.81603,-2.24472 -8.75399,-7.29513 -10.88648,-11.33566 -6.73418,-12.23374 -6.17299,-28.62026 1.34684,-40.06835 4.48944,-6.84643 12.79473,-12.23378 20.7635,-13.46839 0.98207,-0.17536 2.2712,-0.25206 3.6821,-0.24726 z" /><path
       id="path2416"
       style="fill:#3a4647;fill-opacity:1;fill-rule:evenodd;stroke:none;stroke-width:0.372572"
       d="m 295.02546,146.24911 c -1.98704,0 -4.71926,0.37306 -5.96113,0.62144 -1.3661,0.37259 -2.60777,0.7449 -2.85614,0.99329 -0.37258,0.24838 -0.62144,2.4838 -0.62144,7.824 v 7.57586 l -4.0983,0.12377 c -2.98058,0.24839 -4.22198,0.49726 -4.59456,0.99401 -0.49675,0.99353 -0.49725,8.07238 0.12378,9.31429 0.37258,0.74514 0.99353,0.86885 4.47085,0.86885 h 4.0983 v 18.38043 c 0,16.88989 0.12447,18.50463 0.86956,21.36101 1.24191,4.0983 3.47759,6.83047 6.83073,8.56915 2.11123,1.11772 3.35315,1.36562 7.45144,1.61399 4.09827,0.1242 5.34017,4.8e-4 8.19656,-0.86885 1.73867,-0.62095 3.60105,-1.36636 3.84942,-1.61472 0.74515,-0.62097 0.86959,-9.93523 0.12448,-10.432 -0.24838,-0.12419 -1.61449,0.12448 -2.98058,0.497 -4.9676,1.3661 -8.81753,0.74515 -10.05943,-1.86286 -0.74514,-1.36609 -0.86957,-3.35339 -0.86957,-18.753 v -17.13829 l 7.32773,-0.24814 7.20256,-0.24886 0.24886,-4.47086 c 0,-2.98058 -0.12447,-4.84294 -0.497,-5.33971 -0.37259,-0.49676 -1.98706,-0.62144 -7.45142,-0.62144 h -7.07887 v -8.56913 -8.56916 z m -47.13029,15.22304 c -1.84733,0.0214 -3.60178,0.23916 -5.15414,0.67383 -6.58209,1.73867 -11.54973,5.83696 -13.78516,11.17715 -0.99353,2.3596 -1.24143,3.72571 -1.24143,6.70628 0,9.0659 4.96717,13.90935 18.75229,17.88343 8.32075,2.35962 10.68063,3.47733 12.04672,5.21601 2.23544,2.73218 1.11772,7.20304 -2.23543,8.94172 -6.08532,3.10476 -13.90957,1.24165 -20.24328,-4.96786 -1.49028,-1.3661 -1.98657,-1.73843 -2.73172,-1.36587 -1.61447,0.86933 -6.83071,6.0851 -6.83071,6.95443 0,1.11772 4.59528,5.96091 7.20329,7.69957 3.7257,2.48382 8.44472,3.8499 14.40586,4.09829 6.58208,0.24838 10.18362,-0.49654 14.90285,-3.22871 6.83048,-3.8499 10.432,-11.17739 9.3143,-19.12558 -0.49676,-3.47733 -1.61448,-5.71277 -4.09829,-8.19656 -3.10477,-3.22896 -7.32726,-5.21554 -18.256,-8.3203 -7.32724,-2.11124 -9.56243,-3.72571 -9.56243,-7.07885 0,-3.72573 2.98032,-5.58857 8.81728,-5.58857 4.34668,0.1242 7.824,1.49005 11.17715,4.34642 1.3661,1.24191 2.85637,2.23542 3.35313,2.23542 0.86934,0 6.83073,-6.33396 6.83073,-7.20329 0,-0.74513 -3.60178,-4.34667 -6.45816,-6.3337 -4.28457,-2.88743 -10.66486,-4.58729 -16.20685,-4.52326 z m 139.50838,0.0524 c -0.86544,-0.009 -1.56403,0.0312 -1.96764,0.12448 -0.49677,0.1242 -1.98705,0.49677 -3.35315,0.74515 -4.34668,0.99352 -8.81727,3.60176 -12.17042,7.20329 -5.34019,5.71275 -7.82402,12.1702 -8.19657,21.73284 -0.62095,12.79162 3.60153,22.85154 11.92228,28.56431 12.04646,8.32075 29.93016,5.3397 37.75417,-6.21001 0.86931,-1.2419 1.49003,-2.48332 1.36584,-2.7317 -0.37258,-0.62096 -7.94821,-4.96786 -8.56913,-4.96786 -0.24839,0 -1.4903,0.99351 -2.60802,2.23542 -2.60801,2.608 -6.08532,4.34666 -9.31428,4.84343 -2.608,0.37258 -7.45166,-0.49677 -9.43872,-1.49028 -2.23543,-1.24192 -4.84344,-4.22224 -5.96114,-6.58185 -0.99352,-1.98705 -2.35914,-7.32773 -1.98657,-7.7003 0.1242,0 8.81755,-0.24838 19.37371,-0.37258 22.1059,-0.12419 20.49144,0.12462 20.49144,-4.59456 0,-15.15123 -7.07936,-26.57726 -18.50486,-29.68201 -2.14229,-0.652 -6.24059,-1.09443 -8.83694,-1.11771 z m 61.60455,0.0705 c -1.37378,0.0113 -2.66402,0.10796 -3.71189,0.302 -11.30131,1.86286 -19.3742,10.68039 -21.85801,23.47199 -1.98705,10.30781 -0.37233,19.74655 4.59529,27.32216 4.96762,7.82399 12.91581,11.92206 22.72686,11.79786 7.32724,0 13.41235,-2.11101 18.13158,-6.58185 2.11125,-2.11125 5.09206,-5.96092 4.96786,-6.95444 0,-0.12419 -1.8631,-1.36633 -4.22271,-2.73242 l -4.222,-2.35988 -2.11173,2.23544 c -1.2419,1.24191 -3.35291,2.85689 -4.719,3.60201 -2.35963,1.11772 -3.22872,1.36585 -6.95441,1.36585 -3.72573,0 -4.71948,-0.24862 -6.83072,-1.24214 -1.3661,-0.74515 -3.10452,-1.86286 -3.97386,-2.60801 -1.73866,-1.73867 -4.09829,-6.7063 -4.47086,-9.68685 l -0.24886,-2.35913 19.49815,-0.12449 19.49815,-0.12447 0.12377,-5.71229 c 0.12421,-7.07883 -0.62071,-10.80481 -3.22871,-16.145 -2.8564,-6.08533 -7.69958,-10.30806 -14.40586,-12.41928 -2.13452,-0.68307 -5.56061,-1.07215 -8.58297,-1.04714 z m -95.76398,0.36094 c -1.30654,-0.017 -2.68222,0.1972 -4.56836,0.6862 -1.3661,0.37257 -3.105,0.994 -3.85014,1.36658 -1.98705,1.11771 -5.21551,4.09779 -6.45743,6.08484 l -1.11771,1.73916 -0.24886,-4.0983 -0.24815,-4.09827 -6.20929,-0.12448 -6.3337,-0.24814 -0.37258,1.36585 c -0.62095,1.61448 -0.37306,57.25183 0.12377,57.7486 0.49677,0.62095 11.92254,0.62095 12.41931,0 0.24838,-0.1242 0.49652,-8.19635 0.6207,-17.75901 l 0.24886,-17.51086 1.36586,-2.60801 c 2.98058,-5.71275 7.57538,-8.44519 14.77843,-8.69357 h 4.34715 l 0.24813,-2.23543 c 0.24837,-1.11771 0.37259,-4.09829 0.37259,-6.33372 v -4.22271 l -1.9873,-0.62071 c -1.14101,-0.27166 -2.11499,-0.42491 -3.13121,-0.43806 z m -144.03453,1.43134 c -3.10476,0 -5.96066,0.12462 -6.08486,0.24887 -0.1242,0.24838 -0.24886,13.41258 -0.24886,29.43315 0,27.19769 0,29.06057 0.74515,29.43314 0.49674,0.1242 3.22944,0.37232 6.20999,0.24814 4.0983,0 5.4639,-0.12391 5.71228,-0.62071 0.62095,-1.11771 0.62095,-56.6311 0,-57.87301 -0.37258,-0.86934 -0.99353,-0.86958 -6.3337,-0.86958 z m 179.16469,9.76982 c 2.26653,-0.009 4.6062,0.33618 6.00334,1.03476 3.84991,1.86284 6.5821,5.96162 7.07887,10.68087 l 0.24887,2.35913 -13.28888,0.12448 h -13.28813 l 0.24813,-1.86285 c 0.49676,-2.85639 3.10499,-7.94794 4.96786,-9.56242 0.86933,-0.74514 2.35962,-1.73916 3.35315,-2.11172 1.19532,-0.43468 2.91391,-0.65542 4.67679,-0.6622 z m 61.22907,0.13095 c 2.75869,-0.0141 5.6902,0.31386 6.87001,0.90378 3.22896,1.86286 5.83672,6.4584 6.20929,10.68086 l 0.12447,2.23544 -13.41257,0.12377 -13.28887,0.12449 0.24886,-1.86286 c 0.49677,-2.98057 2.85614,-7.82425 4.71901,-9.43872 0.99349,-0.74515 2.608,-1.73868 3.7257,-2.23542 1.10996,-0.35318 2.91661,-0.522 4.80414,-0.53121 z" /><path
       style="fill:#526760;fill-opacity:1;fill-rule:evenodd;stroke:none;stroke-width:0.372572"
       d="m 307.67314,32.590219 c 1.98704,1.241906 3.10475,2.732192 3.7257,4.96762 0.49677,1.738668 0.49677,1.738668 0.49677,1.738668 -0.1242,45.329536 -0.1242,45.329536 -0.1242,45.329536 -0.12419,45.329517 -0.12419,45.329517 -0.12419,45.329517 -0.74514,1.3661 -0.74514,1.3661 -0.74514,1.3661 -0.86933,1.61448 -2.98058,3.60153 -4.47085,4.22248 -1.11772,0.49676 -1.11772,0.49676 -1.11772,0.49676 -20.98819,0 -20.98819,0 -20.98819,0 -11.67391,0 -21.36078,-0.1242 -21.60916,-0.37257 -0.37257,-0.24838 -0.37257,-0.24838 -0.37257,-0.24838 0,-3.47734 0,-3.47734 0,-3.47734 0,-3.35314 0,-3.35314 0,-3.35314 0.49677,-0.62095 0.49677,-0.62095 0.49677,-0.62095 0.49675,-0.49677 0.49675,-0.49677 0.49675,-0.49677 20.24306,0 20.24306,0 20.24306,0 20.36724,0 20.36724,0 20.36724,0 -0.12419,-43.466658 -0.12419,-43.466658 -0.12419,-43.466658 -0.12421,-43.590871 -0.12421,-43.590871 -0.12421,-43.590871 -0.24838,0 -0.24838,0 -0.24838,0 -0.24839,0 -20.61563,0 -45.45373,0 -45.08115,0 -45.08115,0 -45.08115,0 0,31.544388 0,31.544388 0,31.544388 0,31.420201 0,31.420201 0,31.420201 -1.61448,0.86933 -1.61448,0.86933 -1.61448,0.86933 -1.61446,0.86934 -3.7257,3.10476 -5.21599,5.34018 -0.62096,1.11772 -0.62096,1.11772 -0.62096,1.11772 -0.1242,-2.4838 -0.1242,-2.4838 -0.1242,-2.4838 0,-1.24192 0,-17.63505 0,-36.263631 0.1242,-33.779817 0.1242,-33.779817 0.1242,-33.779817 0.49676,-1.490286 0.49676,-1.490286 0.49676,-1.490286 0.74515,-1.862858 2.48382,-3.725715 4.22248,-4.470858 1.36609,-0.620953 1.36609,-0.620953 1.36609,-0.620953 47.31659,0 47.31659,0 47.31659,0 47.31658,0 47.31658,0 47.31658,0 1.49029,0.993524 1.49029,0.993524 1.49029,0.993524 z"
       id="path3175" /><path
       style="fill:#526760;fill-opacity:1;fill-rule:evenodd;stroke:none;stroke-width:0.372572"
       d="m 291.65256,46.996318 c 1.86285,0.993523 2.7322,1.987048 3.60153,3.974096 2.11124,4.967621 -0.62096,10.680383 -5.58858,11.549716 -1.61447,0.248382 -1.61447,0.248382 -1.61447,0.248382 -1.61448,-0.372572 -1.61448,-0.372572 -1.61448,-0.372572 -2.11123,-0.745143 -3.72571,-2.111239 -4.59505,-4.222477 -0.74514,-1.862858 -0.74514,-1.862858 -0.74514,-1.862858 0,-1.862857 0,-1.862857 0,-1.862857 -0.1242,-4.71924 3.10476,-8.196573 7.57561,-8.196573 1.73867,0 1.73867,0 1.73867,0 1.24191,0.745143 1.24191,0.745143 1.24191,0.745143 z"
       id="path3177" /><path
       style="fill:#526760;fill-opacity:1;fill-rule:evenodd;stroke:none;stroke-width:0.372572"
       d="m 261.72265,46.996318 c 1.98705,0.993523 2.98057,2.359619 3.72572,4.470858 0.74515,1.987048 0.74515,1.987048 0.74515,1.987048 -0.24839,1.987048 -0.24839,1.987048 -0.24839,1.987048 -0.12419,1.987048 -0.12419,1.987048 -0.12419,1.987048 -1.11772,1.862858 -1.11772,1.862858 -1.11772,1.862858 -1.11771,1.738666 -1.11771,1.738666 -1.11771,1.738666 -1.73868,0.869335 -1.73868,0.869335 -1.73868,0.869335 -2.23543,0.993524 -3.9741,1.117713 -6.08532,0.24838 -1.98706,-0.993525 -2.98058,-1.987048 -3.84992,-4.098287 -0.74514,-1.738667 -0.74514,-1.738667 -0.74514,-1.738667 0,-1.862857 0,-1.862857 0,-1.862857 -0.1242,-4.71924 3.10476,-8.196573 7.57561,-8.196573 1.73867,0 1.73867,0 1.73867,0 1.24191,0.745143 1.24191,0.745143 1.24191,0.745143 z"
       id="path3179" /><path
       style="fill:#526760;fill-opacity:1;fill-rule:evenodd;stroke:none;stroke-width:0.372572"
       d="m 232.2895,47.120508 c 1.73868,0.869333 1.73868,0.869333 1.73868,0.869333 0.99351,1.987048 0.99351,1.987048 0.99351,1.987048 1.11772,1.987048 1.11772,1.987048 1.11772,1.987048 0,2.235429 0,2.235429 0,2.235429 0,2.359621 0,2.359621 0,2.359621 -0.62095,1.490285 -0.62095,1.490285 -0.62095,1.490285 -0.62095,1.738667 -2.608,3.601525 -4.59505,4.346668 -1.49029,0.496763 -1.49029,0.496763 -1.49029,0.496763 -1.86285,-0.372573 -1.86285,-0.372573 -1.86285,-0.372573 -1.86286,-0.248381 -1.86286,-0.248381 -1.86286,-0.248381 -1.49028,-1.366096 -1.49028,-1.366096 -1.49028,-1.366096 -0.74515,-0.745142 -1.73868,-1.987048 -2.11125,-2.73219 -0.62095,-1.366095 -0.62095,-1.366095 -0.62095,-1.366095 0,-2.35962 0,-2.35962 0,-2.35962 0,-2.23543 0,-2.23543 0,-2.23543 0.62095,-1.366096 0.62095,-1.366096 0.62095,-1.366096 1.98705,-4.098286 6.20952,-5.588571 10.18362,-3.725714 z"
       id="path3181" /><path
       style="fill:#526760;fill-opacity:1;fill-rule:evenodd;stroke:none;stroke-width:0.372572"
       d="m 290.90741,73.945655 c 0.74515,0.248383 1.98705,1.117714 2.85639,1.987051 1.3661,1.490285 1.3661,1.490285 1.3661,1.490285 0.49676,1.738665 0.49676,1.738665 0.49676,1.738665 0.49677,2.359622 0.49677,3.849906 -0.24838,5.836955 -0.86934,2.111246 -1.73867,3.104765 -3.60153,4.098284 -1.49029,0.869333 -1.49029,0.869333 -1.49029,0.869333 -1.49027,0 -1.49027,0 -1.49027,0 -1.73868,0 -4.22249,-0.993519 -5.46439,-2.111235 -1.11772,-1.117715 -2.23543,-4.098283 -2.23543,-5.961147 0,-1.738664 0,-1.738664 0,-1.738664 0.86933,-1.987047 0.86933,-1.987047 0.86933,-1.987047 0.86933,-2.111239 0.86933,-2.111239 0.86933,-2.111239 1.61448,-1.117714 1.61448,-1.117714 1.61448,-1.117714 1.61448,-1.117715 1.61448,-1.117715 1.61448,-1.117715 1.73867,-0.124185 1.73867,-0.124185 1.73867,-0.124185 0.99353,-0.124198 2.35961,0 3.10475,0.248379 z"
       id="path3183" /><path
       style="fill:#526760;fill-opacity:1;fill-rule:evenodd;stroke:none;stroke-width:0.372572"
       d="m 260.97751,73.945655 c 0.74514,0.248383 1.98704,1.117714 2.73219,1.862859 1.3661,1.490285 1.3661,1.490285 1.3661,1.490285 0.49675,1.862857 0.49675,1.862857 0.49675,1.862857 0.99353,3.477338 0.49677,5.961141 -1.49028,8.320769 -1.3661,1.61447 -3.35315,2.483803 -5.3402,2.483803 -1.61447,0 -1.61447,0 -1.61447,0 -1.73866,-0.869333 -1.73866,-0.869333 -1.73866,-0.869333 -1.73867,-0.869333 -1.73867,-0.869333 -1.73867,-0.869333 -1.11771,-1.862853 -1.11771,-1.862853 -1.11771,-1.862853 -1.24192,-1.862852 -1.24192,-1.862852 -1.24192,-1.862852 0,-2.483814 0,-2.483814 0,-2.483814 0,-2.483815 0,-2.483815 0,-2.483815 0.86934,-1.738664 0.86934,-1.738664 0.86934,-1.738664 0.74514,-1.738668 0.74514,-1.738668 0.74514,-1.738668 1.61448,-1.117714 1.61448,-1.117714 1.61448,-1.117714 1.61449,-1.117715 1.61449,-1.117715 1.61449,-1.117715 1.73866,-0.124185 1.73866,-0.124185 1.73866,-0.124185 0.99351,-0.124198 2.35961,0 3.10476,0.248379 z"
       id="path3185" /><path
       style="fill:#526760;fill-opacity:1;fill-rule:evenodd;stroke:none;stroke-width:0.372572"
       d="m 231.79274,74.318227 c 3.10477,1.490287 4.34667,3.849908 4.34667,7.699816 0,2.235432 0,2.235432 0,2.235432 -0.62095,1.241901 -0.62095,1.241901 -0.62095,1.241901 -0.24838,0.620951 -1.2419,1.862852 -1.98705,2.608 -1.49028,1.366098 -1.49028,1.366098 -1.49028,1.366098 -1.4903,0.372568 -1.4903,0.372568 -1.4903,0.372568 -4.34665,0.869334 -8.19657,-2.111234 -9.1901,-6.83048 -0.24838,-1.366098 -0.24838,-1.366098 -0.24838,-1.366098 0.49677,-1.862853 0.49677,-1.862853 0.49677,-1.862853 0.49676,-2.35962 2.23543,-4.470859 4.34667,-5.464384 2.11123,-0.993521 3.72571,-0.993521 5.83695,0 z"
       id="path3187" /><path
       style="fill:#526760;fill-opacity:1;fill-rule:evenodd;stroke:none;stroke-width:0.372572"
       d="m 291.65256,101.26757 c 3.47734,1.73867 5.3402,6.83047 3.72572,10.80457 -0.74515,1.86286 -1.98705,3.22895 -4.22248,4.34666 -1.73867,0.86934 -1.73867,0.86934 -1.73867,0.86934 -1.61447,-0.37257 -1.61447,-0.37257 -1.61447,-0.37257 -2.11124,-0.37258 -3.35315,-1.11772 -4.71924,-2.73219 -1.61449,-1.86286 -1.98705,-2.98057 -1.98705,-5.34019 0,-2.11125 0,-2.11125 0,-2.11125 0.62095,-1.49028 0.62095,-1.49028 0.62095,-1.49028 0.49676,-0.86932 1.49029,-2.23542 2.35963,-2.98057 1.61447,-1.2419 1.61447,-1.2419 1.61447,-1.2419 2.35962,-0.24838 2.35962,-0.24838 2.35962,-0.24838 2.35961,-0.12419 2.35961,-0.12419 2.35961,-0.12419 1.24191,0.62095 1.24191,0.62095 1.24191,0.62095 z"
       id="path3189" /><path
       style="fill:#526760;fill-opacity:1;fill-rule:evenodd;stroke:none;stroke-width:0.372572"
       d="m 262.09522,101.39176 c 4.22248,2.48381 5.3402,9.0659 1.98705,12.79162 -1.11772,1.24189 -1.11772,1.24189 -1.11772,1.24189 -0.86933,0 -0.86933,0 -0.86933,0 -0.86933,0 -0.86933,0 -0.86933,0 -1.3661,-2.4838 -1.3661,-2.4838 -1.3661,-2.4838 -0.74515,-1.3661 -2.4838,-3.8499 -3.8499,-5.58857 -2.48382,-3.10476 -2.48382,-3.10476 -2.48382,-3.10476 0.1242,-0.86933 0.1242,-0.86933 0.1242,-0.86933 0.1242,-0.99352 0.1242,-0.99352 0.1242,-0.99352 1.49029,-0.86935 1.49029,-0.86935 1.49029,-0.86935 1.49029,-0.86932 1.49029,-0.86932 1.49029,-0.86932 1.98705,0.12418 1.98705,0.12418 1.98705,0.12418 2.11124,0 2.11124,0 2.11124,0 1.24189,0.62096 1.24189,0.62096 1.24189,0.62096 z"
       id="path3191" /><path
       style="fill:#526760;fill-opacity:1;fill-rule:evenodd;stroke:none;stroke-width:0.372572"
       d="m 228.93635,103.99976 c -1.61446,0.12418 -1.98705,0.24838 -2.11122,0.24838 -0.24839,0 -0.62095,3.22895 -0.74515,5.83695 0,1.11772 0,1.11772 0,1.11772 -0.86933,0.24838 -0.86933,0.24838 -0.86933,0.24838 -0.49677,0.12419 -1.24191,0.24838 -1.61448,0.37257 -0.86934,0.37258 -2.73219,1.36609 -3.22896,1.61448 -0.24838,0.12419 -0.37257,0.24838 -0.37257,0.24838 -0.1242,0 -1.24191,-0.99353 -2.73218,-2.23543 -1.49029,-1.11772 -2.7322,-2.11125 -2.7322,-2.11125 -0.24838,-0.1242 -1.86286,1.24191 -3.22896,2.60801 -1.11771,1.2419 -2.48381,2.98056 -2.48381,3.10476 0.37258,0.49676 1.73868,2.11123 2.85639,3.47733 0.86934,0.86933 1.49029,1.73868 1.49029,1.73868 0,0.12419 0,0.37256 -0.24839,0.62095 -0.49676,0.86933 -1.2419,2.23543 -1.49028,3.10476 -0.1242,0.49677 -0.37258,1.11771 -0.49677,1.49028 -0.12419,0.24838 -0.12419,0.62095 -0.12419,0.62095 0,0.12419 -0.1242,0.24838 -0.62096,0.24838 -3.22895,0.24838 -6.20952,0.62096 -6.33371,0.74515 -0.24838,0.24838 -0.37258,3.47732 -0.24838,5.34018 0,1.24191 0.24838,2.48382 0.37257,2.608 0,0 2.35961,0.24838 6.20952,0.62096 0.62096,0.1242 0.62096,0.1242 0.62096,0.1242 0,0.24837 0,0.24837 0,0.24837 0,0.24838 0.12419,0.49677 0.24837,0.74515 0,0.24838 0.24838,0.74515 0.37258,1.3661 0.37257,0.99353 0.99352,2.3596 1.61448,3.22896 0.1242,0.24836 0.24837,0.49674 0.24837,0.49674 0,0.1242 -0.74514,0.86933 -1.49028,1.86286 -2.11124,2.608 -2.85639,3.47734 -2.7322,3.60153 0.24838,0.49677 1.61448,1.98705 2.48381,2.98058 1.24192,1.24189 3.10476,2.73218 3.22897,2.60799 0,0 0.74512,-0.62095 1.73865,-1.49027 0.86933,-0.74515 1.98705,-1.61448 2.48382,-1.98707 0.49676,-0.37256 0.86933,-0.74513 0.99351,-0.86932 0.1242,-0.12421 0.24839,0 0.99353,0.49676 1.11772,0.62094 2.48382,1.11771 3.84992,1.49027 0.49676,0.12421 0.9935,0.24839 0.9935,0.24839 0.1242,0.1242 0.24839,0.99353 0.37258,2.48381 0.24839,2.48381 0.49676,4.34668 0.49676,4.47086 0.12419,0.24839 2.48381,0.37258 4.71924,0.24839 1.61448,0 3.22896,-0.1242 3.35314,-0.24839 0.12421,0 0.24838,-1.49028 0.37259,-3.22895 0.1242,-1.73868 0.37256,-3.35313 0.37256,-3.47734 0,-0.37256 0,-0.24838 1.3661,-0.74513 1.2419,-0.37259 2.85638,-0.99353 3.72571,-1.61448 0.49677,-0.24838 0.74515,-0.49676 0.86933,-0.37258 0,0 0.49677,0.37258 1.11772,0.86935 1.86286,1.61446 4.22247,3.47732 4.34667,3.47732 0.24838,-0.1242 1.11771,-0.86933 1.61448,-1.24189 1.11771,-0.99354 3.97409,-4.34668 3.97409,-4.47086 0,-0.1242 -0.86933,-1.24192 -1.98704,-2.60802 -1.24192,-1.36609 -2.23544,-2.48381 -2.35963,-2.60799 -0.1242,-0.24839 -0.1242,-0.24839 -0.1242,-0.24839 0.49677,-0.99353 0.49677,-0.99353 0.49677,-0.99353 0.62095,-1.24189 1.24191,-2.73217 1.49029,-3.84989 0.24837,-0.86933 0.24837,-0.86933 0.24837,-0.86933 1.4903,-0.1242 1.4903,-0.1242 1.4903,-0.1242 0.86933,0 2.48381,-0.12419 3.47732,-0.24838 1.98706,-0.24838 1.98706,-0.24838 1.98706,-0.24838 0.12421,-0.1242 0.12421,-0.1242 0.12421,-0.1242 0.12419,-0.62095 0.24838,-1.86286 0.24838,-3.22895 0,-1.86286 -0.12421,-4.71923 -0.37259,-4.84343 -0.1242,0 -1.61446,-0.24838 -3.47732,-0.37257 -1.86287,-0.1242 -3.35315,-0.37257 -3.47735,-0.37257 0,0 -0.12419,-0.24838 -0.12419,-0.49676 -0.24839,-1.11772 -0.86934,-2.98057 -1.61447,-4.34666 -0.62097,-0.99353 -0.62097,-0.99353 -0.62097,-0.99353 0.37258,-0.37257 0.37258,-0.37257 0.37258,-0.37257 0.1242,-0.24838 1.11772,-1.36609 2.11124,-2.60801 0.99353,-1.2419 1.86286,-2.35961 1.98705,-2.35961 0,-0.1242 -0.62095,-0.99353 -1.73867,-2.23542 -1.2419,-1.24192 -3.9741,-3.60153 -4.09829,-3.47735 -0.74514,0.49677 -3.10476,2.48382 -3.97409,3.22896 -0.62095,0.49677 -1.2419,0.99353 -1.2419,0.99353 -0.1242,0.1242 -0.49677,0 -1.86287,-0.74514 -1.2419,-0.62095 -2.11123,-0.99353 -2.73219,-1.11772 -0.49676,-0.24838 -0.99352,-0.24838 -0.99352,-0.24838 -0.24838,0 -0.24838,0 -0.49677,-2.11125 -0.12419,-1.61447 -0.49676,-4.9676 -0.49676,-5.0918 -0.1242,0 -1.11771,-0.1242 -2.11122,-0.24838 -0.99353,0 -2.98058,-0.12419 -3.72573,0 z m 3.72573,17.13829 c 1.86285,0.24838 3.47733,1.2419 4.96762,2.73217 1.49028,1.4903 2.4838,3.10478 2.85638,4.96763 0.74513,4.09829 -0.86934,8.19658 -4.34667,10.43201 -1.49028,0.99351 -3.10477,1.49028 -4.96763,1.61446 -1.86285,0 -3.22895,-0.24838 -4.84342,-0.99352 -1.86286,-0.99353 -3.35315,-2.35962 -4.47086,-4.34666 -0.74515,-1.49029 -0.99352,-2.85639 -0.99352,-4.71925 0,-2.23542 0.62095,-4.09827 1.98705,-5.83695 1.73867,-2.35961 4.09827,-3.7257 6.4579,-3.97409 0.99352,0 2.7322,0 3.35315,0.1242 z"
       id="path3193" /></g></svg>
